<svg width="1374" height="1636" viewBox="0 0 1374 1636" fill="none" xmlns="http://www.w3.org/2000/svg">
<path fill-rule="evenodd" clip-rule="evenodd" d="M97.5206 0H189.706C194.324 3.49729 198.807 7.2636 202.932 11.568C203.246 11.8818 310.497 17.5313 325.741 0H509.932C519.527 8.29485 539.569 19.549 551.944 6.63588C590.19 15.0652 612.519 9.95382 627.898 0H716.451C719.276 5.11142 724.387 10.2677 732.996 15.2446C780.837 -12.375 804.332 19.549 804.646 19.549C806.977 12.2854 809.129 5.64947 811.102 0H1242.7C1239.74 40.0395 1252.3 2.46604 1302.43 4.61822C1302.43 4.61822 1302.74 4.30436 1303.41 3.94566C1343.63 16.0068 1373.09 53.4458 1373.09 97.2964V438.013C1346.95 477.38 1328.57 532.171 1330.72 535.668C1406.49 656.325 1319.64 625.522 1373.09 715.554V1255C1315.83 1297.68 1237.41 1362.74 1274.31 1373.5C1370.13 1401.3 1284.09 1404.62 1373.09 1424.13V1538.37C1373.09 1591.99 1329.24 1635.84 1275.79 1635.84H706.677C692.957 1606.56 666.637 1579.26 651.393 1590.02C634.848 1601.95 633.368 1587.87 625.073 1596.48C580.057 1643.33 548.805 1612.84 502.937 1618.98C431.601 1628.4 442.183 1628.58 442.542 1635.84H97.5206C43.8955 1635.84 0.044837 1591.99 0.044837 1538.37V1533.08C36.6319 1515.68 6.99458 1502.63 6.81523 1500.3C6.32202 1494.02 3.85599 1490.21 0.044837 1488.06V1406.81L5.82882 1404.98C24.7052 1399.51 29.3234 1373.55 26.9919 1371.57C11.7473 1357.99 13.2113 1325.94 13.0924 1325.75C6.81523 1315.71 6.81523 1324.71 6.81523 1309.02C4.34919 1308.35 2.01767 1307.86 0.044837 1307.19V661.929C44.2093 633.951 38.1115 586.289 38.1115 549.747C-16.1862 505.896 44.3887 455.41 29.3234 445.815C-11.2093 419.675 52.011 416.177 35.6006 393.669C-38.6944 292.248 66.852 385.733 47.1686 328.476C28.6509 324.665 54.7909 296.687 55.1047 296.373C65.1931 289.244 47.6618 249.384 0 229.835V97.2964C0.044837 43.6713 43.8955 0 97.5206 0Z" fill="#FFD8A8"/>
</svg>
